<svg width="60" height="60" viewBox="0 0 60 60" fill="none" xmlns="http://www.w3.org/2000/svg">
    <circle cx="30" cy="30" r="30" fill="white"/>
    <mask id="mask0_142_2664" style="mask-type:alpha" maskUnits="userSpaceOnUse" x="10" y="10" width="40" height="40">
        <rect x="50" y="50" width="40" height="40" transform="rotate(-180 50 50)" fill="#D9D9D9"/>
    </mask>
    <g mask="url(#mask0_142_2664)">
        <path d="M30 28.042L38.542 19.5C38.8193 19.222 39.1457 19.083 39.521 19.083C39.8957 19.083 40.222 19.222 40.5 19.5C40.778 19.778 40.917 20.1043 40.917 20.479C40.917 20.8543 40.778 21.1807 40.5 21.458L31.958 30L40.5 38.542C40.778 38.8193 40.917 39.1457 40.917 39.521C40.917 39.8957 40.778 40.222 40.5 40.5C40.222 40.778 39.8957 40.917 39.521 40.917C39.1457 40.917 38.8193 40.778 38.542 40.5L30 31.958L21.458 40.5C21.1807 40.778 20.8543 40.917 20.479 40.917C20.1043 40.917 19.778 40.778 19.5 40.5C19.222 40.222 19.083 39.8957 19.083 39.521C19.083 39.1457 19.222 38.8193 19.5 38.542L28.042 30L19.5 21.458C19.222 21.1807 19.083 20.8543 19.083 20.479C19.083 20.1043 19.222 19.778 19.5 19.5C19.778 19.222 20.1043 19.083 20.479 19.083C20.8543 19.083 21.1807 19.222 21.458 19.5L30 28.042Z" fill="#1C1B1F"/>
    </g>
</svg>
