<svg width="60" height="60" viewBox="0 0 60 60" fill="none" xmlns="http://www.w3.org/2000/svg">
    <circle cx="30" cy="30" r="30" fill="white"/>
    <mask id="mask0_142_2684" style="mask-type:alpha" maskUnits="userSpaceOnUse" x="10" y="10" width="40" height="40">
        <rect x="50" y="50" width="40" height="40" transform="rotate(-180 50 50)" fill="#D9D9D9"/>
    </mask>
    <g mask="url(#mask0_142_2684)">
        <path d="M36.667 18.917C37.4443 18.917 38.104 19.1877 38.646 19.729C39.1873 20.271 39.458 20.9307 39.458 21.708L39.458 43.917C39.458 44.6943 39.1873 45.354 38.646 45.896C38.104 46.4373 37.4443 46.708 36.667 46.708L19.458 46.708C18.6807 46.708 18.021 46.4373 17.479 45.896C16.9377 45.354 16.667 44.6943 16.667 43.917L16.667 21.708C16.667 20.9307 16.9377 20.271 17.479 19.729C18.021 19.1877 18.6807 18.917 19.458 18.917L36.667 18.917ZM36.667 21.708L19.458 21.708L19.458 43.917L36.667 43.917L36.667 21.708ZM42.208 13.375C42.986 13.375 43.646 13.646 44.188 14.188C44.7293 14.7293 45 15.375 45 16.125L45 39.292C45 39.6807 44.868 40.007 44.604 40.271C44.34 40.535 44.0137 40.667 43.625 40.667C43.2083 40.667 42.868 40.535 42.604 40.271C42.34 40.007 42.208 39.6807 42.208 39.292L42.208 16.125L24.333 16.125C23.9443 16.125 23.618 15.993 23.354 15.729C23.09 15.465 22.958 15.1387 22.958 14.75C22.958 14.3613 23.09 14.035 23.354 13.771C23.618 13.507 23.9443 13.375 24.333 13.375L42.208 13.375Z" fill="#1C1B1F"/>
    </g>
</svg>
