<svg width="60" height="60" viewBox="0 0 60 60" fill="none" xmlns="http://www.w3.org/2000/svg">
    <circle cx="30" cy="30" r="30" fill="white"/>
    <mask id="mask0_142_2669" style="mask-type:alpha" maskUnits="userSpaceOnUse" x="10" y="10" width="40" height="40">
        <rect x="10" y="10" width="40" height="40" fill="#D9D9D9"/>
    </mask>
    <g mask="url(#mask0_142_2669)">
        <path d="M30 36.292C29.8053 36.292 29.6317 36.264 29.479 36.208C29.3263 36.1527 29.1807 36.0417 29.042 35.875L22.833 29.708C22.5557 29.4307 22.424 29.0973 22.438 28.708C22.4513 28.3193 22.597 27.986 22.875 27.708C23.125 27.458 23.4513 27.326 23.854 27.312C24.2567 27.2987 24.583 27.4307 24.833 27.708L28.625 31.5V18.042C28.625 17.6527 28.757 17.3263 29.021 17.063C29.285 16.799 29.6113 16.667 30 16.667C30.3887 16.667 30.715 16.799 30.979 17.063C31.243 17.3263 31.375 17.6527 31.375 18.042V31.5L35.167 27.708C35.4443 27.4307 35.7777 27.2987 36.167 27.312C36.5557 27.326 36.889 27.458 37.167 27.708C37.4443 27.986 37.583 28.3193 37.583 28.708C37.583 29.0973 37.4443 29.4307 37.167 29.708L30.958 35.875C30.8193 36.0417 30.6667 36.1527 30.5 36.208C30.3333 36.264 30.1667 36.292 30 36.292ZM19.458 43.333C18.708 43.333 18.0553 43.0553 17.5 42.5C16.9447 41.9447 16.667 41.292 16.667 40.542V36.292C16.667 35.9027 16.7987 35.576 17.062 35.312C17.326 35.0487 17.6527 34.917 18.042 34.917C18.4587 34.917 18.7987 35.0487 19.062 35.312C19.326 35.576 19.458 35.9027 19.458 36.292V40.542H40.542V36.292C40.542 35.9027 40.6807 35.576 40.958 35.312C41.236 35.0487 41.5693 34.917 41.958 34.917C42.3473 34.917 42.674 35.0487 42.938 35.312C43.2013 35.576 43.333 35.9027 43.333 36.292V40.542C43.333 41.292 43.0553 41.9447 42.5 42.5C41.9447 43.0553 41.292 43.333 40.542 43.333H19.458Z" fill="#1C1B1F"/>
    </g>
</svg>
