<svg width="1650" height="500" viewBox="0 0 1650 500" fill="none" xmlns="http://www.w3.org/2000/svg" xmlns:xlink="http://www.w3.org/1999/xlink">
    <g clip-path="url(#clip0_318_3)">
        <path d="M0 40C0 17.9086 17.9086 0 40 0H1610C1632.09 0 1650 17.9086 1650 40V460C1650 482.091 1632.09 500 1610 500H40C17.9086 500 0 482.091 0 460V40Z" fill="black" fill-opacity="0.1"/>
        <g filter="url(#filter0_f_318_3)">
            <circle cx="115" cy="379" r="169" fill="#AD1F1F"/>
        </g>
        <g filter="url(#filter1_f_318_3)">
            <circle cx="236.5" cy="107.5" r="236.5" fill="#0F79F4"/>
        </g>
        <g filter="url(#filter2_f_318_3)">
            <circle cx="873" cy="298" r="400" fill="#AD1F1F"/>
        </g>
        <g filter="url(#filter3_f_318_3)">
            <circle cx="1527.5" cy="416.5" r="351.5" fill="#0F79F4"/>
        </g>
<!--        <circle cx="304.5" cy="249.5" r="170.5" fill="white"/>-->
<!--        <circle cx="304.5" cy="249.5" r="170.5" fill="url(#pattern0)"/>-->
<!--        <circle cx="304.5" cy="249.5" r="170.5" stroke="white" stroke-width="4"/>-->
<!--        <path d="M565.62 249.29C567.06 252.12 569.38 254.44 572.21 255.88L574.41 253.68C574.69 253.4 575.08 253.32 575.43 253.43C576.55 253.8 577.75 254 579 254C579.265 254 579.52 254.105 579.707 254.293C579.895 254.48 580 254.735 580 255V258.5C580 258.765 579.895 259.02 579.707 259.207C579.52 259.395 579.265 259.5 579 259.5C574.491 259.5 570.167 257.709 566.979 254.521C563.791 251.333 562 247.009 562 242.5C562 242.235 562.105 241.98 562.293 241.793C562.48 241.605 562.735 241.5 563 241.5H566.5C566.765 241.5 567.02 241.605 567.207 241.793C567.395 241.98 567.5 242.235 567.5 242.5C567.5 243.75 567.7 244.95 568.07 246.07C568.18 246.42 568.1 246.81 567.82 247.09L565.62 249.29Z" fill="white"/>-->
<!--        <path d="M600.062 250.464H604.44V252.026H600.062V256.558H598.478V252.026H594.1V250.464H598.478V245.91H600.062V250.464ZM611.86 243.072C612.784 243.072 613.598 243.219 614.302 243.512C615.006 243.791 615.556 244.209 615.952 244.766C616.363 245.323 616.568 246.013 616.568 246.834C616.568 247.465 616.429 248.015 616.15 248.484C615.886 248.953 615.527 249.371 615.072 249.738C614.617 250.09 614.119 250.405 613.576 250.684C614.221 250.992 614.808 251.344 615.336 251.74C615.864 252.121 616.282 252.569 616.59 253.082C616.913 253.595 617.074 254.211 617.074 254.93C617.074 255.81 616.861 256.573 616.436 257.218C616.011 257.849 615.409 258.34 614.632 258.692C613.869 259.044 612.967 259.22 611.926 259.22C610.797 259.22 609.836 259.051 609.044 258.714C608.267 258.377 607.673 257.9 607.262 257.284C606.866 256.653 606.668 255.891 606.668 254.996C606.668 254.277 606.815 253.654 607.108 253.126C607.416 252.598 607.819 252.143 608.318 251.762C608.817 251.381 609.352 251.058 609.924 250.794C609.411 250.501 608.941 250.171 608.516 249.804C608.105 249.423 607.775 248.99 607.526 248.506C607.291 248.022 607.174 247.457 607.174 246.812C607.174 246.005 607.379 245.331 607.79 244.788C608.201 244.231 608.758 243.805 609.462 243.512C610.166 243.219 610.965 243.072 611.86 243.072ZM608.56 255.018C608.56 255.781 608.831 256.419 609.374 256.932C609.917 257.431 610.753 257.68 611.882 257.68C612.601 257.68 613.202 257.563 613.686 257.328C614.17 257.093 614.537 256.771 614.786 256.36C615.05 255.949 615.182 255.48 615.182 254.952C615.182 254.439 615.043 253.991 614.764 253.61C614.5 253.214 614.119 252.862 613.62 252.554C613.136 252.246 612.557 251.967 611.882 251.718L611.53 251.586C610.885 251.865 610.342 252.165 609.902 252.488C609.462 252.811 609.125 253.177 608.89 253.588C608.67 253.999 608.56 254.475 608.56 255.018ZM611.838 244.634C611.031 244.634 610.364 244.832 609.836 245.228C609.323 245.609 609.066 246.167 609.066 246.9C609.066 247.443 609.191 247.897 609.44 248.264C609.704 248.631 610.056 248.946 610.496 249.21C610.936 249.459 611.42 249.701 611.948 249.936C612.461 249.716 612.916 249.474 613.312 249.21C613.723 248.946 614.045 248.631 614.28 248.264C614.529 247.883 614.654 247.428 614.654 246.9C614.654 246.167 614.397 245.609 613.884 245.228C613.371 244.832 612.689 244.634 611.838 244.634ZM624.45 243.072C625.374 243.072 626.188 243.219 626.892 243.512C627.596 243.791 628.146 244.209 628.542 244.766C628.952 245.323 629.158 246.013 629.158 246.834C629.158 247.465 629.018 248.015 628.74 248.484C628.476 248.953 628.116 249.371 627.662 249.738C627.207 250.09 626.708 250.405 626.166 250.684C626.811 250.992 627.398 251.344 627.926 251.74C628.454 252.121 628.872 252.569 629.18 253.082C629.502 253.595 629.664 254.211 629.664 254.93C629.664 255.81 629.451 256.573 629.026 257.218C628.6 257.849 627.999 258.34 627.222 258.692C626.459 259.044 625.557 259.22 624.516 259.22C623.386 259.22 622.426 259.051 621.634 258.714C620.856 258.377 620.262 257.9 619.852 257.284C619.456 256.653 619.258 255.891 619.258 254.996C619.258 254.277 619.404 253.654 619.698 253.126C620.006 252.598 620.409 252.143 620.908 251.762C621.406 251.381 621.942 251.058 622.514 250.794C622 250.501 621.531 250.171 621.106 249.804C620.695 249.423 620.365 248.99 620.116 248.506C619.881 248.022 619.764 247.457 619.764 246.812C619.764 246.005 619.969 245.331 620.38 244.788C620.79 244.231 621.348 243.805 622.052 243.512C622.756 243.219 623.555 243.072 624.45 243.072ZM621.15 255.018C621.15 255.781 621.421 256.419 621.964 256.932C622.506 257.431 623.342 257.68 624.472 257.68C625.19 257.68 625.792 257.563 626.276 257.328C626.76 257.093 627.126 256.771 627.376 256.36C627.64 255.949 627.772 255.48 627.772 254.952C627.772 254.439 627.632 253.991 627.354 253.61C627.09 253.214 626.708 252.862 626.21 252.554C625.726 252.246 625.146 251.967 624.472 251.718L624.12 251.586C623.474 251.865 622.932 252.165 622.492 252.488C622.052 252.811 621.714 253.177 621.48 253.588C621.26 253.999 621.15 254.475 621.15 255.018ZM624.428 244.634C623.621 244.634 622.954 244.832 622.426 245.228C621.912 245.609 621.656 246.167 621.656 246.9C621.656 247.443 621.78 247.897 622.03 248.264C622.294 248.631 622.646 248.946 623.086 249.21C623.526 249.459 624.01 249.701 624.538 249.936C625.051 249.716 625.506 249.474 625.902 249.21C626.312 248.946 626.635 248.631 626.87 248.264C627.119 247.883 627.244 247.428 627.244 246.9C627.244 246.167 626.987 245.609 626.474 245.228C625.96 244.832 625.278 244.634 624.428 244.634ZM642.276 251.124C642.276 252.4 642.18 253.537 641.99 254.534C641.799 255.531 641.491 256.382 641.066 257.086C640.655 257.775 640.112 258.303 639.438 258.67C638.778 259.037 637.978 259.22 637.04 259.22C635.866 259.22 634.891 258.897 634.114 258.252C633.351 257.607 632.779 256.683 632.398 255.48C632.031 254.263 631.848 252.811 631.848 251.124C631.848 249.423 632.016 247.971 632.354 246.768C632.706 245.565 633.263 244.649 634.026 244.018C634.788 243.373 635.793 243.05 637.04 243.05C638.213 243.05 639.188 243.373 639.966 244.018C640.743 244.649 641.322 245.565 641.704 246.768C642.085 247.971 642.276 249.423 642.276 251.124ZM633.784 251.124C633.784 252.561 633.886 253.757 634.092 254.71C634.312 255.663 634.656 256.382 635.126 256.866C635.61 257.335 636.248 257.57 637.04 257.57C637.832 257.57 638.462 257.335 638.932 256.866C639.416 256.397 639.768 255.685 639.988 254.732C640.208 253.764 640.318 252.561 640.318 251.124C640.318 249.687 640.208 248.499 639.988 247.56C639.768 246.607 639.416 245.895 638.932 245.426C638.462 244.942 637.832 244.7 637.04 244.7C636.248 244.7 635.61 244.942 635.126 245.426C634.656 245.895 634.312 246.607 634.092 247.56C633.886 248.499 633.784 249.687 633.784 251.124ZM651.169 259H649.277V248.022C649.277 247.597 649.277 247.237 649.277 246.944C649.292 246.651 649.307 246.379 649.321 246.13C649.336 245.866 649.351 245.595 649.365 245.316C649.131 245.551 648.918 245.749 648.727 245.91C648.537 246.071 648.295 246.277 648.001 246.526L646.329 247.89L645.317 246.592L649.563 243.292H651.169V259ZM658.941 259L665.387 245.052H656.917V243.292H667.455V244.788L661.075 259H658.941ZM674.589 249.364C675.66 249.364 676.591 249.547 677.383 249.914C678.175 250.281 678.784 250.809 679.209 251.498C679.649 252.173 679.869 253.001 679.869 253.984C679.869 255.069 679.634 256.008 679.165 256.8C678.696 257.577 678.021 258.179 677.141 258.604C676.276 259.015 675.227 259.22 673.995 259.22C673.188 259.22 672.426 259.147 671.707 259C671.003 258.853 670.409 258.641 669.925 258.362V256.536C670.453 256.859 671.091 257.115 671.839 257.306C672.602 257.482 673.328 257.57 674.017 257.57C674.794 257.57 675.469 257.453 676.041 257.218C676.628 256.969 677.082 256.595 677.405 256.096C677.728 255.583 677.889 254.945 677.889 254.182C677.889 253.155 677.574 252.371 676.943 251.828C676.312 251.271 675.315 250.992 673.951 250.992C673.54 250.992 673.071 251.029 672.543 251.102C672.015 251.175 671.59 251.249 671.267 251.322L670.299 250.706L670.893 243.292H678.769V245.052H672.543L672.169 249.606C672.418 249.562 672.756 249.511 673.181 249.452C673.606 249.393 674.076 249.364 674.589 249.364ZM687.179 249.364C688.25 249.364 689.181 249.547 689.973 249.914C690.765 250.281 691.374 250.809 691.799 251.498C692.239 252.173 692.459 253.001 692.459 253.984C692.459 255.069 692.224 256.008 691.755 256.8C691.286 257.577 690.611 258.179 689.731 258.604C688.866 259.015 687.817 259.22 686.585 259.22C685.778 259.22 685.016 259.147 684.297 259C683.593 258.853 682.999 258.641 682.515 258.362V256.536C683.043 256.859 683.681 257.115 684.429 257.306C685.192 257.482 685.918 257.57 686.607 257.57C687.384 257.57 688.059 257.453 688.631 257.218C689.218 256.969 689.672 256.595 689.995 256.096C690.318 255.583 690.479 254.945 690.479 254.182C690.479 253.155 690.164 252.371 689.533 251.828C688.902 251.271 687.905 250.992 686.541 250.992C686.13 250.992 685.661 251.029 685.133 251.102C684.605 251.175 684.18 251.249 683.857 251.322L682.889 250.706L683.483 243.292H691.359V245.052H685.133L684.759 249.606C685.008 249.562 685.346 249.511 685.771 249.452C686.196 249.393 686.666 249.364 687.179 249.364ZM699.769 249.364C700.839 249.364 701.771 249.547 702.563 249.914C703.355 250.281 703.963 250.809 704.389 251.498C704.829 252.173 705.049 253.001 705.049 253.984C705.049 255.069 704.814 256.008 704.345 256.8C703.875 257.577 703.201 258.179 702.321 258.604C701.455 259.015 700.407 259.22 699.175 259.22C698.368 259.22 697.605 259.147 696.887 259C696.183 258.853 695.589 258.641 695.105 258.362V256.536C695.633 256.859 696.271 257.115 697.019 257.306C697.781 257.482 698.507 257.57 699.197 257.57C699.974 257.57 700.649 257.453 701.221 257.218C701.807 256.969 702.262 256.595 702.585 256.096C702.907 255.583 703.069 254.945 703.069 254.182C703.069 253.155 702.753 252.371 702.123 251.828C701.492 251.271 700.495 250.992 699.131 250.992C698.72 250.992 698.251 251.029 697.723 251.102C697.195 251.175 696.769 251.249 696.447 251.322L695.479 250.706L696.073 243.292H703.949V245.052H697.723L697.349 249.606C697.598 249.562 697.935 249.511 698.361 249.452C698.786 249.393 699.255 249.364 699.769 249.364ZM712.359 249.364C713.429 249.364 714.361 249.547 715.153 249.914C715.945 250.281 716.553 250.809 716.979 251.498C717.419 252.173 717.639 253.001 717.639 253.984C717.639 255.069 717.404 256.008 716.935 256.8C716.465 257.577 715.791 258.179 714.911 258.604C714.045 259.015 712.997 259.22 711.765 259.22C710.958 259.22 710.195 259.147 709.477 259C708.773 258.853 708.179 258.641 707.695 258.362V256.536C708.223 256.859 708.861 257.115 709.609 257.306C710.371 257.482 711.097 257.57 711.787 257.57C712.564 257.57 713.239 257.453 713.811 257.218C714.397 256.969 714.852 256.595 715.175 256.096C715.497 255.583 715.659 254.945 715.659 254.182C715.659 253.155 715.343 252.371 714.713 251.828C714.082 251.271 713.085 250.992 711.721 250.992C711.31 250.992 710.841 251.029 710.313 251.102C709.785 251.175 709.359 251.249 709.037 251.322L708.069 250.706L708.663 243.292H716.539V245.052H710.313L709.939 249.606C710.188 249.562 710.525 249.511 710.951 249.452C711.376 249.393 711.845 249.364 712.359 249.364ZM730.338 250.002C730.338 250.897 730.272 251.791 730.14 252.686C730.023 253.566 729.81 254.402 729.502 255.194C729.194 255.971 728.769 256.668 728.226 257.284C727.684 257.885 726.994 258.362 726.158 258.714C725.322 259.051 724.31 259.22 723.122 259.22C722.829 259.22 722.484 259.198 722.088 259.154C721.707 259.125 721.392 259.073 721.142 259V257.35C721.406 257.438 721.714 257.511 722.066 257.57C722.418 257.614 722.756 257.636 723.078 257.636C724.105 257.636 724.948 257.467 725.608 257.13C726.283 256.793 726.818 256.338 727.214 255.766C727.61 255.179 727.896 254.505 728.072 253.742C728.248 252.965 728.351 252.151 728.38 251.3H728.248C728.028 251.637 727.75 251.945 727.412 252.224C727.075 252.503 726.664 252.723 726.18 252.884C725.711 253.045 725.154 253.126 724.508 253.126C723.614 253.126 722.822 252.943 722.132 252.576C721.458 252.195 720.93 251.652 720.548 250.948C720.182 250.244 719.998 249.386 719.998 248.374C719.998 247.274 720.204 246.328 720.614 245.536C721.04 244.744 721.626 244.135 722.374 243.71C723.122 243.285 724.002 243.072 725.014 243.072C725.762 243.072 726.459 243.219 727.104 243.512C727.75 243.791 728.314 244.216 728.798 244.788C729.282 245.36 729.656 246.079 729.92 246.944C730.199 247.809 730.338 248.829 730.338 250.002ZM725.014 244.7C724.105 244.7 723.357 245.001 722.77 245.602C722.198 246.203 721.912 247.12 721.912 248.352C721.912 249.364 722.154 250.163 722.638 250.75C723.137 251.322 723.9 251.608 724.926 251.608C725.63 251.608 726.239 251.469 726.752 251.19C727.266 250.897 727.662 250.53 727.94 250.09C728.234 249.65 728.38 249.195 728.38 248.726C728.38 248.257 728.307 247.787 728.16 247.318C728.028 246.834 727.823 246.394 727.544 245.998C727.266 245.602 726.914 245.287 726.488 245.052C726.063 244.817 725.572 244.7 725.014 244.7ZM742.334 246.966C742.334 247.67 742.202 248.279 741.938 248.792C741.674 249.305 741.293 249.723 740.794 250.046C740.31 250.369 739.738 250.596 739.078 250.728V250.816C740.34 250.963 741.278 251.359 741.894 252.004C742.51 252.649 742.818 253.493 742.818 254.534C742.818 255.443 742.606 256.257 742.18 256.976C741.755 257.68 741.095 258.23 740.2 258.626C739.32 259.022 738.184 259.22 736.79 259.22C735.969 259.22 735.206 259.154 734.502 259.022C733.798 258.905 733.124 258.685 732.478 258.362V256.558C733.138 256.881 733.85 257.137 734.612 257.328C735.375 257.504 736.108 257.592 736.812 257.592C738.22 257.592 739.232 257.321 739.848 256.778C740.479 256.221 740.794 255.458 740.794 254.49C740.794 253.83 740.618 253.302 740.266 252.906C739.929 252.495 739.43 252.195 738.77 252.004C738.11 251.813 737.318 251.718 736.394 251.718H734.876V250.068H736.416C737.282 250.068 738 249.943 738.572 249.694C739.159 249.445 739.599 249.1 739.892 248.66C740.2 248.205 740.354 247.685 740.354 247.098C740.354 246.335 740.098 245.749 739.584 245.338C739.071 244.913 738.374 244.7 737.494 244.7C736.937 244.7 736.431 244.759 735.976 244.876C735.522 244.979 735.096 245.133 734.7 245.338C734.319 245.529 733.93 245.756 733.534 246.02L732.566 244.7C732.948 244.407 733.38 244.135 733.864 243.886C734.363 243.637 734.913 243.439 735.514 243.292C736.116 243.145 736.768 243.072 737.472 243.072C739.115 243.072 740.332 243.439 741.124 244.172C741.931 244.905 742.334 245.837 742.334 246.966ZM751.888 259H749.996V248.022C749.996 247.597 749.996 247.237 749.996 246.944C750.011 246.651 750.025 246.379 750.04 246.13C750.055 245.866 750.069 245.595 750.084 245.316C749.849 245.551 749.637 245.749 749.446 245.91C749.255 246.071 749.013 246.277 748.72 246.526L747.048 247.89L746.036 246.592L750.282 243.292H751.888V259ZM768.108 259H757.724V257.394L761.838 253.236C762.63 252.444 763.297 251.74 763.84 251.124C764.383 250.508 764.793 249.907 765.072 249.32C765.351 248.719 765.49 248.066 765.49 247.362C765.49 246.497 765.233 245.844 764.72 245.404C764.207 244.949 763.539 244.722 762.718 244.722C761.955 244.722 761.281 244.854 760.694 245.118C760.122 245.382 759.535 245.749 758.934 246.218L757.9 244.92C758.311 244.568 758.758 244.253 759.242 243.974C759.741 243.695 760.276 243.475 760.848 243.314C761.435 243.153 762.058 243.072 762.718 243.072C763.701 243.072 764.544 243.241 765.248 243.578C765.952 243.915 766.495 244.399 766.876 245.03C767.272 245.646 767.47 246.387 767.47 247.252C767.47 247.868 767.375 248.455 767.184 249.012C766.993 249.555 766.722 250.09 766.37 250.618C766.018 251.146 765.593 251.681 765.094 252.224C764.595 252.767 764.045 253.331 763.444 253.918L760.166 257.152V257.24H768.108V259Z" fill="white"/>-->
<!--        <path d="M820 246.5L812 251.5L804 246.5V244.5L812 249.5L820 244.5M820 242.5H804C802.89 242.5 802 243.39 802 244.5V256.5C802 257.03 802.211 257.539 802.586 257.914C802.961 258.289 803.47 258.5 804 258.5H820C820.53 258.5 821.039 258.289 821.414 257.914C821.789 257.539 822 257.03 822 256.5V244.5C822 243.39 821.1 242.5 820 242.5Z" fill="white"/>-->
<!--        <path d="M843.548 255.744C843.548 256.507 843.357 257.145 842.976 257.658C842.595 258.171 842.052 258.56 841.348 258.824C840.644 259.088 839.808 259.22 838.84 259.22C838.019 259.22 837.307 259.154 836.706 259.022C836.119 258.89 835.599 258.707 835.144 258.472V256.712C835.613 256.947 836.178 257.167 836.838 257.372C837.513 257.563 838.195 257.658 838.884 257.658C839.867 257.658 840.578 257.504 841.018 257.196C841.458 256.873 841.678 256.448 841.678 255.92C841.678 255.627 841.597 255.363 841.436 255.128C841.275 254.893 840.981 254.659 840.556 254.424C840.145 254.189 839.551 253.925 838.774 253.632C838.011 253.339 837.359 253.045 836.816 252.752C836.273 252.459 835.855 252.107 835.562 251.696C835.269 251.285 835.122 250.757 835.122 250.112C835.122 249.115 835.525 248.345 836.332 247.802C837.153 247.259 838.224 246.988 839.544 246.988C840.263 246.988 840.93 247.061 841.546 247.208C842.177 247.34 842.763 247.531 843.306 247.78L842.646 249.32C842.323 249.173 841.979 249.049 841.612 248.946C841.26 248.829 840.901 248.741 840.534 248.682C840.167 248.609 839.793 248.572 839.412 248.572C838.62 248.572 838.011 248.704 837.586 248.968C837.175 249.217 836.97 249.562 836.97 250.002C836.97 250.325 837.065 250.603 837.256 250.838C837.447 251.058 837.762 251.278 838.202 251.498C838.657 251.703 839.258 251.953 840.006 252.246C840.754 252.525 841.392 252.811 841.92 253.104C842.448 253.397 842.851 253.757 843.13 254.182C843.409 254.593 843.548 255.113 843.548 255.744ZM850.863 247.01C852.301 247.01 853.364 247.325 854.053 247.956C854.743 248.587 855.087 249.591 855.087 250.97V259H853.679L853.305 257.328H853.217C852.88 257.753 852.528 258.113 852.161 258.406C851.809 258.685 851.399 258.89 850.929 259.022C850.475 259.154 849.917 259.22 849.257 259.22C848.553 259.22 847.915 259.095 847.343 258.846C846.786 258.597 846.346 258.215 846.023 257.702C845.701 257.174 845.539 256.514 845.539 255.722C845.539 254.549 846.001 253.647 846.925 253.016C847.849 252.371 849.272 252.019 851.193 251.96L853.195 251.894V251.19C853.195 250.207 852.983 249.525 852.557 249.144C852.132 248.763 851.531 248.572 850.753 248.572C850.137 248.572 849.551 248.667 848.993 248.858C848.436 249.034 847.915 249.239 847.431 249.474L846.837 248.022C847.351 247.743 847.959 247.509 848.663 247.318C849.367 247.113 850.101 247.01 850.863 247.01ZM851.435 253.302C849.969 253.361 848.949 253.595 848.377 254.006C847.82 254.417 847.541 254.996 847.541 255.744C847.541 256.404 847.739 256.888 848.135 257.196C848.546 257.504 849.067 257.658 849.697 257.658C850.695 257.658 851.523 257.387 852.183 256.844C852.843 256.287 853.173 255.436 853.173 254.292V253.236L851.435 253.302ZM862.909 259.22C861.443 259.22 860.269 258.714 859.389 257.702C858.509 256.675 858.069 255.15 858.069 253.126C858.069 251.102 858.509 249.577 859.389 248.55C860.284 247.509 861.465 246.988 862.931 246.988C863.547 246.988 864.083 247.069 864.537 247.23C864.992 247.377 865.388 247.582 865.725 247.846C866.063 248.11 866.349 248.403 866.583 248.726H866.715C866.701 248.535 866.671 248.257 866.627 247.89C866.598 247.509 866.583 247.208 866.583 246.988V242.28H868.519V259H866.957L866.671 257.416H866.583C866.349 257.753 866.063 258.061 865.725 258.34C865.388 258.604 864.985 258.817 864.515 258.978C864.061 259.139 863.525 259.22 862.909 259.22ZM863.217 257.614C864.464 257.614 865.337 257.277 865.835 256.602C866.349 255.913 866.605 254.879 866.605 253.5V253.148C866.605 251.681 866.363 250.559 865.879 249.782C865.395 248.99 864.501 248.594 863.195 248.594C862.154 248.594 861.369 249.012 860.841 249.848C860.328 250.669 860.071 251.777 860.071 253.17C860.071 254.578 860.328 255.671 860.841 256.448C861.369 257.225 862.161 257.614 863.217 257.614ZM874.201 247.208V259H872.265V247.208H874.201ZM873.255 242.786C873.548 242.786 873.805 242.889 874.025 243.094C874.259 243.285 874.377 243.593 874.377 244.018C874.377 244.429 874.259 244.737 874.025 244.942C873.805 245.147 873.548 245.25 873.255 245.25C872.932 245.25 872.661 245.147 872.441 244.942C872.221 244.737 872.111 244.429 872.111 244.018C872.111 243.593 872.221 243.285 872.441 243.094C872.661 242.889 872.932 242.786 873.255 242.786ZM885.79 259.242C885.79 258.978 885.798 258.67 885.812 258.318C885.827 257.966 885.856 257.665 885.9 257.416H885.768C885.431 257.915 884.962 258.34 884.36 258.692C883.774 259.044 883.011 259.22 882.072 259.22C880.65 259.22 879.491 258.714 878.596 257.702C877.716 256.675 877.276 255.15 877.276 253.126C877.276 251.777 877.482 250.647 877.892 249.738C878.303 248.829 878.875 248.147 879.608 247.692C880.342 247.223 881.185 246.988 882.138 246.988C883.062 246.988 883.818 247.164 884.404 247.516C884.991 247.868 885.46 248.301 885.812 248.814H885.9L886.186 247.208H887.726V264.28H885.79V259.242ZM882.446 257.614C883.253 257.614 883.898 257.467 884.382 257.174C884.881 256.881 885.24 256.433 885.46 255.832C885.68 255.216 885.798 254.453 885.812 253.544V253.148C885.812 251.652 885.563 250.523 885.064 249.76C884.566 248.983 883.678 248.594 882.402 248.594C881.346 248.594 880.562 249.012 880.048 249.848C879.535 250.669 879.278 251.777 879.278 253.17C879.278 254.563 879.535 255.656 880.048 256.448C880.576 257.225 881.376 257.614 882.446 257.614ZM891.186 257.812C891.186 257.269 891.318 256.888 891.582 256.668C891.846 256.448 892.161 256.338 892.528 256.338C892.909 256.338 893.232 256.448 893.496 256.668C893.774 256.888 893.914 257.269 893.914 257.812C893.914 258.34 893.774 258.721 893.496 258.956C893.232 259.191 892.909 259.308 892.528 259.308C892.161 259.308 891.846 259.191 891.582 258.956C891.318 258.721 891.186 258.34 891.186 257.812ZM899.294 247.208V259H897.358V247.208H899.294ZM898.348 242.786C898.642 242.786 898.898 242.889 899.118 243.094C899.353 243.285 899.47 243.593 899.47 244.018C899.47 244.429 899.353 244.737 899.118 244.942C898.898 245.147 898.642 245.25 898.348 245.25C898.026 245.25 897.754 245.147 897.534 244.942C897.314 244.737 897.204 244.429 897.204 244.018C897.204 243.593 897.314 243.285 897.534 243.094C897.754 242.889 898.026 242.786 898.348 242.786ZM910.884 259.242C910.884 258.978 910.891 258.67 910.906 258.318C910.921 257.966 910.95 257.665 910.994 257.416H910.862C910.525 257.915 910.055 258.34 909.454 258.692C908.867 259.044 908.105 259.22 907.166 259.22C905.743 259.22 904.585 258.714 903.69 257.702C902.81 256.675 902.37 255.15 902.37 253.126C902.37 251.777 902.575 250.647 902.986 249.738C903.397 248.829 903.969 248.147 904.702 247.692C905.435 247.223 906.279 246.988 907.232 246.988C908.156 246.988 908.911 247.164 909.498 247.516C910.085 247.868 910.554 248.301 910.906 248.814H910.994L911.28 247.208H912.82V264.28H910.884V259.242ZM907.54 257.614C908.347 257.614 908.992 257.467 909.476 257.174C909.975 256.881 910.334 256.433 910.554 255.832C910.774 255.216 910.891 254.453 910.906 253.544V253.148C910.906 251.652 910.657 250.523 910.158 249.76C909.659 248.983 908.772 248.594 907.496 248.594C906.44 248.594 905.655 249.012 905.142 249.848C904.629 250.669 904.372 251.777 904.372 253.17C904.372 254.563 904.629 255.656 905.142 256.448C905.67 257.225 906.469 257.614 907.54 257.614ZM918.501 246.35C918.501 246.849 918.487 247.318 918.457 247.758C918.443 248.183 918.421 248.521 918.391 248.77H918.501C918.839 248.271 919.301 247.853 919.887 247.516C920.474 247.179 921.229 247.01 922.153 247.01C923.62 247.01 924.793 247.523 925.673 248.55C926.568 249.562 927.015 251.08 927.015 253.104C927.015 254.453 926.81 255.583 926.399 256.492C926.003 257.401 925.439 258.083 924.705 258.538C923.972 258.993 923.121 259.22 922.153 259.22C921.229 259.22 920.474 259.051 919.887 258.714C919.301 258.377 918.839 257.973 918.501 257.504H918.347L917.951 259H916.565V242.28H918.501V246.35ZM921.823 248.616C920.987 248.616 920.327 248.777 919.843 249.1C919.359 249.408 919.015 249.892 918.809 250.552C918.604 251.197 918.501 252.026 918.501 253.038V253.126C918.501 254.578 918.736 255.693 919.205 256.47C919.689 257.233 920.577 257.614 921.867 257.614C922.923 257.614 923.708 257.225 924.221 256.448C924.749 255.671 925.013 254.549 925.013 253.082C925.013 251.601 924.749 250.486 924.221 249.738C923.708 248.99 922.909 248.616 921.823 248.616ZM934.566 247.01C936.004 247.01 937.067 247.325 937.756 247.956C938.446 248.587 938.79 249.591 938.79 250.97V259H937.382L937.008 257.328H936.92C936.583 257.753 936.231 258.113 935.864 258.406C935.512 258.685 935.102 258.89 934.632 259.022C934.178 259.154 933.62 259.22 932.96 259.22C932.256 259.22 931.618 259.095 931.046 258.846C930.489 258.597 930.049 258.215 929.726 257.702C929.404 257.174 929.242 256.514 929.242 255.722C929.242 254.549 929.704 253.647 930.628 253.016C931.552 252.371 932.975 252.019 934.896 251.96L936.898 251.894V251.19C936.898 250.207 936.686 249.525 936.26 249.144C935.835 248.763 935.234 248.572 934.456 248.572C933.84 248.572 933.254 248.667 932.696 248.858C932.139 249.034 931.618 249.239 931.134 249.474L930.54 248.022C931.054 247.743 931.662 247.509 932.366 247.318C933.07 247.113 933.804 247.01 934.566 247.01ZM935.138 253.302C933.672 253.361 932.652 253.595 932.08 254.006C931.523 254.417 931.244 254.996 931.244 255.744C931.244 256.404 931.442 256.888 931.838 257.196C932.249 257.504 932.77 257.658 933.4 257.658C934.398 257.658 935.226 257.387 935.886 256.844C936.546 256.287 936.876 255.436 936.876 254.292V253.236L935.138 253.302ZM944.369 259H942.433V242.28H944.369V259ZM964.736 251.146C964.736 251.821 964.656 252.481 964.494 253.126C964.348 253.771 964.113 254.358 963.79 254.886C963.468 255.399 963.072 255.817 962.602 256.14C962.133 256.448 961.576 256.602 960.93 256.602C960.256 256.602 959.72 256.411 959.324 256.03C958.943 255.634 958.708 255.187 958.62 254.688H958.51C958.246 255.231 957.858 255.685 957.344 256.052C956.831 256.419 956.186 256.602 955.408 256.602C954.294 256.602 953.428 256.228 952.812 255.48C952.211 254.732 951.91 253.742 951.91 252.51C951.91 251.542 952.101 250.691 952.482 249.958C952.864 249.21 953.399 248.623 954.088 248.198C954.792 247.773 955.621 247.56 956.574 247.56C957.22 247.56 957.85 247.619 958.466 247.736C959.097 247.839 959.588 247.956 959.94 248.088L959.72 252.554C959.706 252.818 959.698 253.009 959.698 253.126C959.698 253.229 959.698 253.302 959.698 253.346C959.698 254.109 959.83 254.615 960.094 254.864C960.373 255.113 960.696 255.238 961.062 255.238C961.517 255.238 961.898 255.055 962.206 254.688C962.529 254.307 962.771 253.808 962.932 253.192C963.108 252.561 963.196 251.872 963.196 251.124C963.196 249.76 962.918 248.609 962.36 247.67C961.818 246.717 961.062 245.991 960.094 245.492C959.141 244.993 958.056 244.744 956.838 244.744C955.592 244.744 954.484 244.942 953.516 245.338C952.548 245.734 951.734 246.291 951.074 247.01C950.429 247.729 949.938 248.579 949.6 249.562C949.263 250.53 949.094 251.601 949.094 252.774C949.094 254.211 949.351 255.436 949.864 256.448C950.378 257.445 951.126 258.208 952.108 258.736C953.106 259.249 954.323 259.506 955.76 259.506C956.655 259.506 957.506 259.403 958.312 259.198C959.134 259.007 959.86 258.795 960.49 258.56V260.056C959.86 260.32 959.148 260.533 958.356 260.694C957.579 260.87 956.714 260.958 955.76 260.958C954.03 260.958 952.548 260.635 951.316 259.99C950.084 259.345 949.138 258.421 948.478 257.218C947.833 256.001 947.51 254.541 947.51 252.84C947.51 251.476 947.723 250.215 948.148 249.056C948.574 247.883 949.19 246.871 949.996 246.02C950.803 245.155 951.778 244.487 952.922 244.018C954.081 243.534 955.386 243.292 956.838 243.292C957.982 243.292 959.031 243.475 959.984 243.842C960.952 244.194 961.788 244.715 962.492 245.404C963.211 246.079 963.761 246.9 964.142 247.868C964.538 248.836 964.736 249.929 964.736 251.146ZM953.626 252.554C953.626 253.493 953.81 254.175 954.176 254.6C954.558 255.025 955.064 255.238 955.694 255.238C956.516 255.238 957.102 254.93 957.454 254.314C957.821 253.698 958.034 252.899 958.092 251.916L958.224 249.166C958.034 249.107 957.792 249.056 957.498 249.012C957.205 248.968 956.904 248.946 956.596 248.946C955.878 248.946 955.298 249.122 954.858 249.474C954.418 249.826 954.103 250.281 953.912 250.838C953.722 251.381 953.626 251.953 953.626 252.554ZM969.827 246.35C969.827 246.849 969.813 247.318 969.783 247.758C969.769 248.183 969.747 248.521 969.717 248.77H969.827C970.165 248.271 970.627 247.853 971.213 247.516C971.8 247.179 972.555 247.01 973.479 247.01C974.946 247.01 976.119 247.523 976.999 248.55C977.894 249.562 978.341 251.08 978.341 253.104C978.341 254.453 978.136 255.583 977.725 256.492C977.329 257.401 976.765 258.083 976.031 258.538C975.298 258.993 974.447 259.22 973.479 259.22C972.555 259.22 971.8 259.051 971.213 258.714C970.627 258.377 970.165 257.973 969.827 257.504H969.673L969.277 259H967.891V242.28H969.827V246.35ZM973.149 248.616C972.313 248.616 971.653 248.777 971.169 249.1C970.685 249.408 970.341 249.892 970.135 250.552C969.93 251.197 969.827 252.026 969.827 253.038V253.126C969.827 254.578 970.062 255.693 970.531 256.47C971.015 257.233 971.903 257.614 973.193 257.614C974.249 257.614 975.034 257.225 975.547 256.448C976.075 255.671 976.339 254.549 976.339 253.082C976.339 251.601 976.075 250.486 975.547 249.738C975.034 248.99 974.235 248.616 973.149 248.616ZM991.283 247.208V259H989.699L989.413 257.438H989.325C989.075 257.849 988.753 258.186 988.357 258.45C987.961 258.714 987.528 258.905 987.059 259.022C986.589 259.154 986.098 259.22 985.585 259.22C984.646 259.22 983.854 259.073 983.209 258.78C982.578 258.472 982.101 258.003 981.779 257.372C981.456 256.741 981.295 255.927 981.295 254.93V247.208H983.253V254.798C983.253 255.737 983.465 256.441 983.891 256.91C984.316 257.379 984.976 257.614 985.871 257.614C986.751 257.614 987.44 257.453 987.939 257.13C988.452 256.793 988.811 256.309 989.017 255.678C989.237 255.033 989.347 254.255 989.347 253.346V247.208H991.283ZM994.74 257.812C994.74 257.269 994.872 256.888 995.136 256.668C995.4 256.448 995.716 256.338 996.082 256.338C996.464 256.338 996.786 256.448 997.05 256.668C997.329 256.888 997.468 257.269 997.468 257.812C997.468 258.34 997.329 258.721 997.05 258.956C996.786 259.191 996.464 259.308 996.082 259.308C995.716 259.308 995.4 259.191 995.136 258.956C994.872 258.721 994.74 258.34 994.74 257.812ZM1005.47 246.988C1006.48 246.988 1007.34 247.208 1008.06 247.648C1008.8 248.088 1009.35 248.711 1009.73 249.518C1010.13 250.31 1010.33 251.241 1010.33 252.312V253.478H1002.25C1002.28 254.813 1002.62 255.832 1003.27 256.536C1003.93 257.225 1004.84 257.57 1006.02 257.57C1006.76 257.57 1007.42 257.504 1008 257.372C1008.58 257.225 1009.18 257.02 1009.8 256.756V258.45C1009.2 258.714 1008.61 258.905 1008.02 259.022C1007.43 259.154 1006.74 259.22 1005.93 259.22C1004.81 259.22 1003.82 258.993 1002.96 258.538C1002.11 258.083 1001.44 257.409 1000.96 256.514C1000.49 255.605 1000.25 254.497 1000.25 253.192C1000.25 251.901 1000.47 250.794 1000.89 249.87C1001.33 248.946 1001.94 248.235 1002.72 247.736C1003.51 247.237 1004.43 246.988 1005.47 246.988ZM1005.44 248.572C1004.52 248.572 1003.79 248.873 1003.24 249.474C1002.72 250.061 1002.4 250.882 1002.3 251.938H1008.3C1008.3 251.263 1008.2 250.677 1008 250.178C1007.79 249.679 1007.48 249.291 1007.05 249.012C1006.64 248.719 1006.1 248.572 1005.44 248.572ZM1017.51 259.22C1016.04 259.22 1014.87 258.714 1013.99 257.702C1013.11 256.675 1012.67 255.15 1012.67 253.126C1012.67 251.102 1013.11 249.577 1013.99 248.55C1014.89 247.509 1016.07 246.988 1017.53 246.988C1018.15 246.988 1018.68 247.069 1019.14 247.23C1019.59 247.377 1019.99 247.582 1020.33 247.846C1020.66 248.11 1020.95 248.403 1021.18 248.726H1021.32C1021.3 248.535 1021.27 248.257 1021.23 247.89C1021.2 247.509 1021.18 247.208 1021.18 246.988V242.28H1023.12V259H1021.56L1021.27 257.416H1021.18C1020.95 257.753 1020.66 258.061 1020.33 258.34C1019.99 258.604 1019.59 258.817 1019.12 258.978C1018.66 259.139 1018.13 259.22 1017.51 259.22ZM1017.82 257.614C1019.07 257.614 1019.94 257.277 1020.44 256.602C1020.95 255.913 1021.21 254.879 1021.21 253.5V253.148C1021.21 251.681 1020.96 250.559 1020.48 249.782C1020 248.99 1019.1 248.594 1017.8 248.594C1016.76 248.594 1015.97 249.012 1015.44 249.848C1014.93 250.669 1014.67 251.777 1014.67 253.17C1014.67 254.578 1014.93 255.671 1015.44 256.448C1015.97 257.225 1016.76 257.614 1017.82 257.614ZM1036.72 247.208V259H1035.14L1034.85 257.438H1034.76C1034.51 257.849 1034.19 258.186 1033.8 258.45C1033.4 258.714 1032.97 258.905 1032.5 259.022C1032.03 259.154 1031.54 259.22 1031.02 259.22C1030.09 259.22 1029.29 259.073 1028.65 258.78C1028.02 258.472 1027.54 258.003 1027.22 257.372C1026.9 256.741 1026.73 255.927 1026.73 254.93V247.208H1028.69V254.798C1028.69 255.737 1028.9 256.441 1029.33 256.91C1029.76 257.379 1030.42 257.614 1031.31 257.614C1032.19 257.614 1032.88 257.453 1033.38 257.13C1033.89 256.793 1034.25 256.309 1034.46 255.678C1034.68 255.033 1034.79 254.255 1034.79 253.346V247.208H1036.72ZM1040.18 257.812C1040.18 257.269 1040.31 256.888 1040.58 256.668C1040.84 256.448 1041.16 256.338 1041.52 256.338C1041.9 256.338 1042.23 256.448 1042.49 256.668C1042.77 256.888 1042.91 257.269 1042.91 257.812C1042.91 258.34 1042.77 258.721 1042.49 258.956C1042.23 259.191 1041.9 259.308 1041.52 259.308C1041.16 259.308 1040.84 259.191 1040.58 258.956C1040.31 258.721 1040.18 258.34 1040.18 257.812ZM1048.29 246.35C1048.29 246.849 1048.27 247.318 1048.24 247.758C1048.23 248.183 1048.21 248.521 1048.18 248.77H1048.29C1048.63 248.271 1049.09 247.853 1049.67 247.516C1050.26 247.179 1051.02 247.01 1051.94 247.01C1053.41 247.01 1054.58 247.523 1055.46 248.55C1056.36 249.562 1056.8 251.08 1056.8 253.104C1056.8 254.453 1056.6 255.583 1056.19 256.492C1055.79 257.401 1055.23 258.083 1054.49 258.538C1053.76 258.993 1052.91 259.22 1051.94 259.22C1051.02 259.22 1050.26 259.051 1049.67 258.714C1049.09 258.377 1048.63 257.973 1048.29 257.504H1048.13L1047.74 259H1046.35V242.28H1048.29V246.35ZM1051.61 248.616C1050.77 248.616 1050.11 248.777 1049.63 249.1C1049.15 249.408 1048.8 249.892 1048.6 250.552C1048.39 251.197 1048.29 252.026 1048.29 253.038V253.126C1048.29 254.578 1048.52 255.693 1048.99 256.47C1049.48 257.233 1050.36 257.614 1051.65 257.614C1052.71 257.614 1053.5 257.225 1054.01 256.448C1054.54 255.671 1054.8 254.549 1054.8 253.082C1054.8 251.601 1054.54 250.486 1054.01 249.738C1053.5 248.99 1052.7 248.616 1051.61 248.616ZM1064.07 259.22C1062.6 259.22 1061.43 258.714 1060.55 257.702C1059.67 256.675 1059.23 255.15 1059.23 253.126C1059.23 251.102 1059.67 249.577 1060.55 248.55C1061.44 247.509 1062.62 246.988 1064.09 246.988C1064.71 246.988 1065.24 247.069 1065.7 247.23C1066.15 247.377 1066.55 247.582 1066.88 247.846C1067.22 248.11 1067.51 248.403 1067.74 248.726H1067.87C1067.86 248.535 1067.83 248.257 1067.79 247.89C1067.76 247.509 1067.74 247.208 1067.74 246.988V242.28H1069.68V259H1068.12L1067.83 257.416H1067.74C1067.51 257.753 1067.22 258.061 1066.88 258.34C1066.55 258.604 1066.14 258.817 1065.67 258.978C1065.22 259.139 1064.68 259.22 1064.07 259.22ZM1064.38 257.614C1065.62 257.614 1066.49 257.277 1066.99 256.602C1067.51 255.913 1067.76 254.879 1067.76 253.5V253.148C1067.76 251.681 1067.52 250.559 1067.04 249.782C1066.55 248.99 1065.66 248.594 1064.35 248.594C1063.31 248.594 1062.53 249.012 1062 249.848C1061.49 250.669 1061.23 251.777 1061.23 253.17C1061.23 254.578 1061.49 255.671 1062 256.448C1062.53 257.225 1063.32 257.614 1064.38 257.614Z" fill="white"/>-->
<!--        <path d="M1118.36 252.5C1118.44 251.84 1118.5 251.18 1118.5 250.5C1118.5 249.82 1118.44 249.16 1118.36 248.5H1121.74C1121.9 249.14 1122 249.81 1122 250.5C1122 251.19 1121.9 251.86 1121.74 252.5M1116.59 258.06C1117.19 256.95 1117.65 255.75 1117.97 254.5H1120.92C1119.96 256.15 1118.43 257.43 1116.59 258.06ZM1116.34 252.5H1111.66C1111.56 251.84 1111.5 251.18 1111.5 250.5C1111.5 249.82 1111.56 249.15 1111.66 248.5H1116.34C1116.43 249.15 1116.5 249.82 1116.5 250.5C1116.5 251.18 1116.43 251.84 1116.34 252.5ZM1114 258.46C1113.17 257.26 1112.5 255.93 1112.09 254.5H1115.91C1115.5 255.93 1114.83 257.26 1114 258.46ZM1110 246.5H1107.08C1108.03 244.84 1109.57 243.56 1111.4 242.94C1110.8 244.05 1110.35 245.25 1110 246.5ZM1107.08 254.5H1110C1110.35 255.75 1110.8 256.95 1111.4 258.06C1109.57 257.43 1108.03 256.15 1107.08 254.5ZM1106.26 252.5C1106.1 251.86 1106 251.19 1106 250.5C1106 249.81 1106.1 249.14 1106.26 248.5H1109.64C1109.56 249.16 1109.5 249.82 1109.5 250.5C1109.5 251.18 1109.56 251.84 1109.64 252.5M1114 242.53C1114.83 243.73 1115.5 245.07 1115.91 246.5H1112.09C1112.5 245.07 1113.17 243.73 1114 242.53ZM1120.92 246.5H1117.97C1117.65 245.25 1117.19 244.05 1116.59 242.94C1118.43 243.57 1119.96 244.84 1120.92 246.5ZM1114 240.5C1108.47 240.5 1104 245 1104 250.5C1104 253.152 1105.05 255.696 1106.93 257.571C1107.86 258.5 1108.96 259.236 1110.17 259.739C1111.39 260.241 1112.69 260.5 1114 260.5C1116.65 260.5 1119.2 259.446 1121.07 257.571C1122.95 255.696 1124 253.152 1124 250.5C1124 249.187 1123.74 247.886 1123.24 246.673C1122.74 245.46 1122 244.358 1121.07 243.429C1120.14 242.5 1119.04 241.764 1117.83 241.261C1116.61 240.759 1115.31 240.5 1114 240.5Z" fill="white"/>-->
<!--        <path d="M1145.48 252.334C1145.39 252.026 1145.31 251.725 1145.22 251.432C1145.13 251.124 1145.05 250.838 1144.98 250.574C1144.92 250.295 1144.86 250.039 1144.8 249.804C1144.74 249.569 1144.7 249.371 1144.67 249.21H1144.58C1144.55 249.371 1144.51 249.569 1144.45 249.804C1144.4 250.039 1144.35 250.295 1144.27 250.574C1144.21 250.853 1144.14 251.146 1144.05 251.454C1143.98 251.747 1143.89 252.048 1143.79 252.356L1141.68 258.978H1139.48L1136.24 247.186H1138.24L1139.87 253.478C1139.99 253.903 1140.1 254.336 1140.2 254.776C1140.3 255.201 1140.39 255.612 1140.47 256.008C1140.55 256.389 1140.61 256.719 1140.64 256.998H1140.73C1140.77 256.822 1140.83 256.602 1140.88 256.338C1140.94 256.074 1141 255.795 1141.06 255.502C1141.13 255.209 1141.21 254.915 1141.28 254.622C1141.37 254.329 1141.45 254.065 1141.52 253.83L1143.61 247.186H1145.72L1147.75 253.83C1147.85 254.167 1147.95 254.527 1148.06 254.908C1148.17 255.289 1148.28 255.663 1148.36 256.03C1148.45 256.382 1148.51 256.697 1148.54 256.976H1148.63C1148.66 256.727 1148.71 256.419 1148.78 256.052C1148.87 255.671 1148.97 255.26 1149.07 254.82C1149.19 254.365 1149.3 253.918 1149.42 253.478L1151.07 247.186H1153.05L1149.77 258.978H1147.51L1145.48 252.334ZM1162.78 252.334C1162.69 252.026 1162.6 251.725 1162.51 251.432C1162.42 251.124 1162.34 250.838 1162.27 250.574C1162.21 250.295 1162.15 250.039 1162.09 249.804C1162.04 249.569 1161.99 249.371 1161.96 249.21H1161.87C1161.85 249.371 1161.8 249.569 1161.74 249.804C1161.7 250.039 1161.64 250.295 1161.57 250.574C1161.51 250.853 1161.43 251.146 1161.35 251.454C1161.27 251.747 1161.19 252.048 1161.08 252.356L1158.97 258.978H1156.77L1153.54 247.186H1155.54L1157.17 253.478C1157.28 253.903 1157.39 254.336 1157.5 254.776C1157.6 255.201 1157.69 255.612 1157.76 256.008C1157.85 256.389 1157.91 256.719 1157.94 256.998H1158.02C1158.07 256.822 1158.12 256.602 1158.18 256.338C1158.24 256.074 1158.3 255.795 1158.35 255.502C1158.43 255.209 1158.5 254.915 1158.57 254.622C1158.66 254.329 1158.74 254.065 1158.82 253.83L1160.91 247.186H1163.02L1165.04 253.83C1165.15 254.167 1165.25 254.527 1165.35 254.908C1165.47 255.289 1165.57 255.663 1165.66 256.03C1165.75 256.382 1165.81 256.697 1165.83 256.976H1165.92C1165.95 256.727 1166 256.419 1166.08 256.052C1166.16 255.671 1166.26 255.26 1166.36 254.82C1166.48 254.365 1166.6 253.918 1166.71 253.478L1168.36 247.186H1170.34L1167.07 258.978H1164.8L1162.78 252.334ZM1180.07 252.334C1179.98 252.026 1179.9 251.725 1179.81 251.432C1179.72 251.124 1179.64 250.838 1179.57 250.574C1179.51 250.295 1179.45 250.039 1179.39 249.804C1179.33 249.569 1179.29 249.371 1179.26 249.21H1179.17C1179.14 249.371 1179.1 249.569 1179.04 249.804C1178.99 250.039 1178.94 250.295 1178.86 250.574C1178.8 250.853 1178.73 251.146 1178.64 251.454C1178.57 251.747 1178.48 252.048 1178.38 252.356L1176.27 258.978H1174.07L1170.83 247.186H1172.83L1174.46 253.478C1174.58 253.903 1174.69 254.336 1174.79 254.776C1174.89 255.201 1174.98 255.612 1175.06 256.008C1175.14 256.389 1175.2 256.719 1175.23 256.998H1175.32C1175.36 256.822 1175.42 256.602 1175.47 256.338C1175.53 256.074 1175.59 255.795 1175.65 255.502C1175.72 255.209 1175.8 254.915 1175.87 254.622C1175.96 254.329 1176.04 254.065 1176.11 253.83L1178.2 247.186H1180.31L1182.34 253.83C1182.44 254.167 1182.54 254.527 1182.65 254.908C1182.76 255.289 1182.87 255.663 1182.95 256.03C1183.04 256.382 1183.1 256.697 1183.13 256.976H1183.22C1183.25 256.727 1183.3 256.419 1183.37 256.052C1183.46 255.671 1183.56 255.26 1183.66 254.82C1183.78 254.365 1183.89 253.918 1184.01 253.478L1185.66 247.186H1187.64L1184.36 258.978H1182.1L1180.07 252.334ZM1188.59 257.812C1188.59 257.269 1188.72 256.888 1188.98 256.668C1189.25 256.448 1189.56 256.338 1189.93 256.338C1190.31 256.338 1190.63 256.448 1190.9 256.668C1191.18 256.888 1191.32 257.269 1191.32 257.812C1191.32 258.34 1191.18 258.721 1190.9 258.956C1190.63 259.191 1190.31 259.308 1189.93 259.308C1189.56 259.308 1189.25 259.191 1188.98 258.956C1188.72 258.721 1188.59 258.34 1188.59 257.812ZM1196.7 246.35C1196.7 246.849 1196.68 247.318 1196.65 247.758C1196.64 248.183 1196.62 248.521 1196.59 248.77H1196.7C1197.03 248.271 1197.5 247.853 1198.08 247.516C1198.67 247.179 1199.42 247.01 1200.35 247.01C1201.82 247.01 1202.99 247.523 1203.87 248.55C1204.76 249.562 1205.21 251.08 1205.21 253.104C1205.21 254.453 1205.01 255.583 1204.59 256.492C1204.2 257.401 1203.63 258.083 1202.9 258.538C1202.17 258.993 1201.32 259.22 1200.35 259.22C1199.42 259.22 1198.67 259.051 1198.08 258.714C1197.5 258.377 1197.03 257.973 1196.7 257.504H1196.54L1196.15 259H1194.76V242.28H1196.7V246.35ZM1200.02 248.616C1199.18 248.616 1198.52 248.777 1198.04 249.1C1197.55 249.408 1197.21 249.892 1197 250.552C1196.8 251.197 1196.7 252.026 1196.7 253.038V253.126C1196.7 254.578 1196.93 255.693 1197.4 256.47C1197.88 257.233 1198.77 257.614 1200.06 257.614C1201.12 257.614 1201.9 257.225 1202.42 256.448C1202.94 255.671 1203.21 254.549 1203.21 253.082C1203.21 251.601 1202.94 250.486 1202.42 249.738C1201.9 248.99 1201.1 248.616 1200.02 248.616ZM1218.15 247.208V259H1216.57L1216.28 257.438H1216.19C1215.94 257.849 1215.62 258.186 1215.23 258.45C1214.83 258.714 1214.4 258.905 1213.93 259.022C1213.46 259.154 1212.97 259.22 1212.45 259.22C1211.52 259.22 1210.72 259.073 1210.08 258.78C1209.45 258.472 1208.97 258.003 1208.65 257.372C1208.33 256.741 1208.16 255.927 1208.16 254.93V247.208H1210.12V254.798C1210.12 255.737 1210.33 256.441 1210.76 256.91C1211.19 257.379 1211.85 257.614 1212.74 257.614C1213.62 257.614 1214.31 257.453 1214.81 257.13C1215.32 256.793 1215.68 256.309 1215.89 255.678C1216.11 255.033 1216.22 254.255 1216.22 253.346V247.208H1218.15ZM1221.61 257.812C1221.61 257.269 1221.74 256.888 1222.01 256.668C1222.27 256.448 1222.58 256.338 1222.95 256.338C1223.33 256.338 1223.66 256.448 1223.92 256.668C1224.2 256.888 1224.34 257.269 1224.34 257.812C1224.34 258.34 1224.2 258.721 1223.92 258.956C1223.66 259.191 1223.33 259.308 1222.95 259.308C1222.58 259.308 1222.27 259.191 1222.01 258.956C1221.74 258.721 1221.61 258.34 1221.61 257.812ZM1232.34 246.988C1233.35 246.988 1234.21 247.208 1234.93 247.648C1235.67 248.088 1236.22 248.711 1236.6 249.518C1237 250.31 1237.2 251.241 1237.2 252.312V253.478H1229.12C1229.15 254.813 1229.49 255.832 1230.14 256.536C1230.8 257.225 1231.71 257.57 1232.89 257.57C1233.63 257.57 1234.29 257.504 1234.87 257.372C1235.45 257.225 1236.05 257.02 1236.67 256.756V258.45C1236.07 258.714 1235.47 258.905 1234.89 259.022C1234.3 259.154 1233.6 259.22 1232.8 259.22C1231.68 259.22 1230.69 258.993 1229.83 258.538C1228.98 258.083 1228.31 257.409 1227.83 256.514C1227.36 255.605 1227.12 254.497 1227.12 253.192C1227.12 251.901 1227.33 250.794 1227.76 249.87C1228.2 248.946 1228.81 248.235 1229.59 247.736C1230.38 247.237 1231.29 246.988 1232.34 246.988ZM1232.31 248.572C1231.39 248.572 1230.66 248.873 1230.11 249.474C1229.59 250.061 1229.27 250.882 1229.17 251.938H1235.17C1235.17 251.263 1235.07 250.677 1234.87 250.178C1234.66 249.679 1234.35 249.291 1233.92 249.012C1233.51 248.719 1232.97 248.572 1232.31 248.572ZM1244.38 259.22C1242.91 259.22 1241.74 258.714 1240.86 257.702C1239.98 256.675 1239.54 255.15 1239.54 253.126C1239.54 251.102 1239.98 249.577 1240.86 248.55C1241.75 247.509 1242.94 246.988 1244.4 246.988C1245.02 246.988 1245.55 247.069 1246.01 247.23C1246.46 247.377 1246.86 247.582 1247.2 247.846C1247.53 248.11 1247.82 248.403 1248.05 248.726H1248.19C1248.17 248.535 1248.14 248.257 1248.1 247.89C1248.07 247.509 1248.05 247.208 1248.05 246.988V242.28H1249.99V259H1248.43L1248.14 257.416H1248.05C1247.82 257.753 1247.53 258.061 1247.2 258.34C1246.86 258.604 1246.46 258.817 1245.99 258.978C1245.53 259.139 1245 259.22 1244.38 259.22ZM1244.69 257.614C1245.93 257.614 1246.81 257.277 1247.31 256.602C1247.82 255.913 1248.08 254.879 1248.08 253.5V253.148C1248.08 251.681 1247.83 250.559 1247.35 249.782C1246.87 248.99 1245.97 248.594 1244.67 248.594C1243.62 248.594 1242.84 249.012 1242.31 249.848C1241.8 250.669 1241.54 251.777 1241.54 253.17C1241.54 254.578 1241.8 255.671 1242.31 256.448C1242.84 257.225 1243.63 257.614 1244.69 257.614ZM1263.59 247.208V259H1262.01L1261.72 257.438H1261.63C1261.38 257.849 1261.06 258.186 1260.67 258.45C1260.27 258.714 1259.84 258.905 1259.37 259.022C1258.9 259.154 1258.41 259.22 1257.89 259.22C1256.95 259.22 1256.16 259.073 1255.52 258.78C1254.89 258.472 1254.41 258.003 1254.09 257.372C1253.76 256.741 1253.6 255.927 1253.6 254.93V247.208H1255.56V254.798C1255.56 255.737 1255.77 256.441 1256.2 256.91C1256.62 257.379 1257.28 257.614 1258.18 257.614C1259.06 257.614 1259.75 257.453 1260.25 257.13C1260.76 256.793 1261.12 256.309 1261.33 255.678C1261.55 255.033 1261.66 254.255 1261.66 253.346V247.208H1263.59ZM1267.05 257.812C1267.05 257.269 1267.18 256.888 1267.44 256.668C1267.71 256.448 1268.02 256.338 1268.39 256.338C1268.77 256.338 1269.09 256.448 1269.36 256.668C1269.64 256.888 1269.78 257.269 1269.78 257.812C1269.78 258.34 1269.64 258.721 1269.36 258.956C1269.09 259.191 1268.77 259.308 1268.39 259.308C1268.02 259.308 1267.71 259.191 1267.44 258.956C1267.18 258.721 1267.05 258.34 1267.05 257.812ZM1275.16 246.35C1275.16 246.849 1275.14 247.318 1275.11 247.758C1275.1 248.183 1275.08 248.521 1275.05 248.77H1275.16C1275.49 248.271 1275.96 247.853 1276.54 247.516C1277.13 247.179 1277.89 247.01 1278.81 247.01C1280.28 247.01 1281.45 247.523 1282.33 248.55C1283.22 249.562 1283.67 251.08 1283.67 253.104C1283.67 254.453 1283.47 255.583 1283.06 256.492C1282.66 257.401 1282.09 258.083 1281.36 258.538C1280.63 258.993 1279.78 259.22 1278.81 259.22C1277.89 259.22 1277.13 259.051 1276.54 258.714C1275.96 258.377 1275.49 257.973 1275.16 257.504H1275L1274.61 259H1273.22V242.28H1275.16V246.35ZM1278.48 248.616C1277.64 248.616 1276.98 248.777 1276.5 249.1C1276.02 249.408 1275.67 249.892 1275.47 250.552C1275.26 251.197 1275.16 252.026 1275.16 253.038V253.126C1275.16 254.578 1275.39 255.693 1275.86 256.47C1276.35 257.233 1277.23 257.614 1278.52 257.614C1279.58 257.614 1280.36 257.225 1280.88 256.448C1281.41 255.671 1281.67 254.549 1281.67 253.082C1281.67 251.601 1281.41 250.486 1280.88 249.738C1280.36 248.99 1279.56 248.616 1278.48 248.616ZM1290.94 259.22C1289.47 259.22 1288.3 258.714 1287.42 257.702C1286.54 256.675 1286.1 255.15 1286.1 253.126C1286.1 251.102 1286.54 249.577 1287.42 248.55C1288.31 247.509 1289.49 246.988 1290.96 246.988C1291.57 246.988 1292.11 247.069 1292.56 247.23C1293.02 247.377 1293.42 247.582 1293.75 247.846C1294.09 248.11 1294.38 248.403 1294.61 248.726H1294.74C1294.73 248.535 1294.7 248.257 1294.65 247.89C1294.63 247.509 1294.61 247.208 1294.61 246.988V242.28H1296.55V259H1294.98L1294.7 257.416H1294.61C1294.38 257.753 1294.09 258.061 1293.75 258.34C1293.42 258.604 1293.01 258.817 1292.54 258.978C1292.09 259.139 1291.55 259.22 1290.94 259.22ZM1291.24 257.614C1292.49 257.614 1293.36 257.277 1293.86 256.602C1294.38 255.913 1294.63 254.879 1294.63 253.5V253.148C1294.63 251.681 1294.39 250.559 1293.91 249.782C1293.42 248.99 1292.53 248.594 1291.22 248.594C1290.18 248.594 1289.4 249.012 1288.87 249.848C1288.36 250.669 1288.1 251.777 1288.1 253.17C1288.1 254.578 1288.36 255.671 1288.87 256.448C1289.4 257.225 1290.19 257.614 1291.24 257.614ZM1306.39 243.292L1300.53 259H1298.64L1304.49 243.292H1306.39ZM1316.16 255.744C1316.16 256.507 1315.96 257.145 1315.58 257.658C1315.2 258.171 1314.66 258.56 1313.96 258.824C1313.25 259.088 1312.42 259.22 1311.45 259.22C1310.63 259.22 1309.91 259.154 1309.31 259.022C1308.73 258.89 1308.21 258.707 1307.75 258.472V256.712C1308.22 256.947 1308.79 257.167 1309.45 257.372C1310.12 257.563 1310.8 257.658 1311.49 257.658C1312.47 257.658 1313.19 257.504 1313.63 257.196C1314.07 256.873 1314.29 256.448 1314.29 255.92C1314.29 255.627 1314.2 255.363 1314.04 255.128C1313.88 254.893 1313.59 254.659 1313.16 254.424C1312.75 254.189 1312.16 253.925 1311.38 253.632C1310.62 253.339 1309.97 253.045 1309.42 252.752C1308.88 252.459 1308.46 252.107 1308.17 251.696C1307.88 251.285 1307.73 250.757 1307.73 250.112C1307.73 249.115 1308.13 248.345 1308.94 247.802C1309.76 247.259 1310.83 246.988 1312.15 246.988C1312.87 246.988 1313.54 247.061 1314.15 247.208C1314.78 247.34 1315.37 247.531 1315.91 247.78L1315.25 249.32C1314.93 249.173 1314.59 249.049 1314.22 248.946C1313.87 248.829 1313.51 248.741 1313.14 248.682C1312.77 248.609 1312.4 248.572 1312.02 248.572C1311.23 248.572 1310.62 248.704 1310.19 248.968C1309.78 249.217 1309.58 249.562 1309.58 250.002C1309.58 250.325 1309.67 250.603 1309.86 250.838C1310.05 251.058 1310.37 251.278 1310.81 251.498C1311.26 251.703 1311.87 251.953 1312.61 252.246C1313.36 252.525 1314 252.811 1314.53 253.104C1315.06 253.397 1315.46 253.757 1315.74 254.182C1316.02 254.593 1316.16 255.113 1316.16 255.744ZM1323.47 247.01C1324.91 247.01 1325.97 247.325 1326.66 247.956C1327.35 248.587 1327.69 249.591 1327.69 250.97V259H1326.29L1325.91 257.328H1325.82C1325.49 257.753 1325.14 258.113 1324.77 258.406C1324.42 258.685 1324.01 258.89 1323.54 259.022C1323.08 259.154 1322.52 259.22 1321.86 259.22C1321.16 259.22 1320.52 259.095 1319.95 258.846C1319.39 258.597 1318.95 258.215 1318.63 257.702C1318.31 257.174 1318.15 256.514 1318.15 255.722C1318.15 254.549 1318.61 253.647 1319.53 253.016C1320.46 252.371 1321.88 252.019 1323.8 251.96L1325.8 251.894V251.19C1325.8 250.207 1325.59 249.525 1325.16 249.144C1324.74 248.763 1324.14 248.572 1323.36 248.572C1322.74 248.572 1322.16 248.667 1321.6 248.858C1321.04 249.034 1320.52 249.239 1320.04 249.474L1319.44 248.022C1319.96 247.743 1320.57 247.509 1321.27 247.318C1321.97 247.113 1322.71 247.01 1323.47 247.01ZM1324.04 253.302C1322.58 253.361 1321.56 253.595 1320.98 254.006C1320.43 254.417 1320.15 254.996 1320.15 255.744C1320.15 256.404 1320.35 256.888 1320.74 257.196C1321.15 257.504 1321.67 257.658 1322.3 257.658C1323.3 257.658 1324.13 257.387 1324.79 256.844C1325.45 256.287 1325.78 255.436 1325.78 254.292V253.236L1324.04 253.302ZM1335.52 259.22C1334.05 259.22 1332.88 258.714 1332 257.702C1331.12 256.675 1330.68 255.15 1330.68 253.126C1330.68 251.102 1331.12 249.577 1332 248.55C1332.89 247.509 1334.07 246.988 1335.54 246.988C1336.15 246.988 1336.69 247.069 1337.14 247.23C1337.6 247.377 1338 247.582 1338.33 247.846C1338.67 248.11 1338.96 248.403 1339.19 248.726H1339.32C1339.31 248.535 1339.28 248.257 1339.23 247.89C1339.21 247.509 1339.19 247.208 1339.19 246.988V242.28H1341.13V259H1339.56L1339.28 257.416H1339.19C1338.96 257.753 1338.67 258.061 1338.33 258.34C1338 258.604 1337.59 258.817 1337.12 258.978C1336.67 259.139 1336.13 259.22 1335.52 259.22ZM1335.82 257.614C1337.07 257.614 1337.94 257.277 1338.44 256.602C1338.96 255.913 1339.21 254.879 1339.21 253.5V253.148C1339.21 251.681 1338.97 250.559 1338.49 249.782C1338 248.99 1337.11 248.594 1335.8 248.594C1334.76 248.594 1333.98 249.012 1333.45 249.848C1332.94 250.669 1332.68 251.777 1332.68 253.17C1332.68 254.578 1332.94 255.671 1333.45 256.448C1333.98 257.225 1334.77 257.614 1335.82 257.614ZM1346.81 247.208V259H1344.87V247.208H1346.81ZM1345.86 242.786C1346.16 242.786 1346.41 242.889 1346.63 243.094C1346.87 243.285 1346.98 243.593 1346.98 244.018C1346.98 244.429 1346.87 244.737 1346.63 244.942C1346.41 245.147 1346.16 245.25 1345.86 245.25C1345.54 245.25 1345.27 245.147 1345.05 244.942C1344.83 244.737 1344.72 244.429 1344.72 244.018C1344.72 243.593 1344.83 243.285 1345.05 243.094C1345.27 242.889 1345.54 242.786 1345.86 242.786ZM1358.4 259.242C1358.4 258.978 1358.41 258.67 1358.42 258.318C1358.43 257.966 1358.46 257.665 1358.51 257.416H1358.38C1358.04 257.915 1357.57 258.34 1356.97 258.692C1356.38 259.044 1355.62 259.22 1354.68 259.22C1353.26 259.22 1352.1 258.714 1351.2 257.702C1350.32 256.675 1349.88 255.15 1349.88 253.126C1349.88 251.777 1350.09 250.647 1350.5 249.738C1350.91 248.829 1351.48 248.147 1352.22 247.692C1352.95 247.223 1353.79 246.988 1354.75 246.988C1355.67 246.988 1356.43 247.164 1357.01 247.516C1357.6 247.868 1358.07 248.301 1358.42 248.814H1358.51L1358.79 247.208H1360.33V264.28H1358.4V259.242ZM1355.05 257.614C1355.86 257.614 1356.51 257.467 1356.99 257.174C1357.49 256.881 1357.85 256.433 1358.07 255.832C1358.29 255.216 1358.41 254.453 1358.42 253.544V253.148C1358.42 251.652 1358.17 250.523 1357.67 249.76C1357.17 248.983 1356.29 248.594 1355.01 248.594C1353.95 248.594 1353.17 249.012 1352.66 249.848C1352.14 250.669 1351.89 251.777 1351.89 253.17C1351.89 254.563 1352.14 255.656 1352.66 256.448C1353.18 257.225 1353.98 257.614 1355.05 257.614Z" fill="white"/>-->
    </g>
    <defs>
        <filter id="filter0_f_318_3" x="-854" y="-590" width="1938" height="1938" filterUnits="userSpaceOnUse" color-interpolation-filters="sRGB">
            <feFlood flood-opacity="0" result="BackgroundImageFix"/>
            <feBlend mode="normal" in="SourceGraphic" in2="BackgroundImageFix" result="shape"/>
            <feGaussianBlur stdDeviation="400" result="effect1_foregroundBlur_318_3"/>
        </filter>
        <filter id="filter1_f_318_3" x="-800" y="-929" width="2073" height="2073" filterUnits="userSpaceOnUse" color-interpolation-filters="sRGB">
            <feFlood flood-opacity="0" result="BackgroundImageFix"/>
            <feBlend mode="normal" in="SourceGraphic" in2="BackgroundImageFix" result="shape"/>
            <feGaussianBlur stdDeviation="400" result="effect1_foregroundBlur_318_3"/>
        </filter>
        <filter id="filter2_f_318_3" x="-327" y="-902" width="2400" height="2400" filterUnits="userSpaceOnUse" color-interpolation-filters="sRGB">
            <feFlood flood-opacity="0" result="BackgroundImageFix"/>
            <feBlend mode="normal" in="SourceGraphic" in2="BackgroundImageFix" result="shape"/>
            <feGaussianBlur stdDeviation="400" result="effect1_foregroundBlur_318_3"/>
        </filter>
        <filter id="filter3_f_318_3" x="376" y="-735" width="2303" height="2303" filterUnits="userSpaceOnUse" color-interpolation-filters="sRGB">
            <feFlood flood-opacity="0" result="BackgroundImageFix"/>
            <feBlend mode="normal" in="SourceGraphic" in2="BackgroundImageFix" result="shape"/>
            <feGaussianBlur stdDeviation="400" result="effect1_foregroundBlur_318_3"/>
        </filter>
<!--        <pattern id="pattern0" patternContentUnits="objectBoundingBox" width="1" height="1">-->
<!--            <use xlink:href="#image0_318_3" transform="translate(0 -0.0353058) scale(0.00229885)"/>-->
<!--        </pattern>-->

    </defs>
</svg>
