<svg width="48" height="48" viewBox="0 0 48 48" fill="none" xmlns="http://www.w3.org/2000/svg">
    <mask id="mask0_142_3086" style="mask-type:alpha" maskUnits="userSpaceOnUse" x="0" y="0" width="48" height="48">
        <rect width="48" height="48" fill="#D9D9D9"/>
    </mask>
    <g mask="url(#mask0_142_3086)">
        <path d="M7.5 17.5C7.06667 17.5 6.70833 17.3583 6.425 17.075C6.14167 16.7917 6 16.4333 6 16V7.5C6 7.06667 6.14167 6.70833 6.425 6.425C6.70833 6.14167 7.06667 6 7.5 6H16C16.4333 6 16.7917 6.14167 17.075 6.425C17.3583 6.70833 17.5 7.06667 17.5 7.5C17.5 7.93333 17.3583 8.29167 17.075 8.575C16.7917 8.85833 16.4333 9 16 9H11.15L17.45 15.3C17.7167 15.5667 17.8583 15.9083 17.875 16.325C17.8917 16.7417 17.75 17.1 17.45 17.4C17.15 17.7 16.7917 17.85 16.375 17.85C15.9583 17.85 15.6 17.7 15.3 17.4L9 11.15V16C9 16.4333 8.85833 16.7917 8.575 17.075C8.29167 17.3583 7.93333 17.5 7.5 17.5ZM30.6 17.4C30.3 17.1 30.15 16.7417 30.15 16.325C30.15 15.9083 30.3 15.55 30.6 15.25L36.85 9H32C31.5667 9 31.2083 8.85833 30.925 8.575C30.6417 8.29167 30.5 7.93333 30.5 7.5C30.5 7.06667 30.6417 6.70833 30.925 6.425C31.2083 6.14167 31.5667 6 32 6H40.5C40.9333 6 41.2917 6.14167 41.575 6.425C41.8583 6.70833 42 7.06667 42 7.5V16C42 16.4333 41.8583 16.7917 41.575 17.075C41.2917 17.3583 40.9333 17.5 40.5 17.5C40.0667 17.5 39.7083 17.3583 39.425 17.075C39.1417 16.7917 39 16.4333 39 16V11.15L32.7 17.45C32.4333 17.7167 32.0917 17.85 31.675 17.85C31.2583 17.85 30.9 17.7 30.6 17.4ZM32 42C31.5667 42 31.2083 41.8583 30.925 41.575C30.6417 41.2917 30.5 40.9333 30.5 40.5C30.5 40.0667 30.6417 39.7083 30.925 39.425C31.2083 39.1417 31.5667 39 32 39H36.85L30.55 32.7C30.2833 32.4333 30.15 32.0833 30.15 31.65C30.15 31.2167 30.3 30.85 30.6 30.55C30.9 30.25 31.2583 30.1 31.675 30.1C32.0917 30.1 32.45 30.25 32.75 30.55L39 36.85V32C39 31.5667 39.1417 31.2083 39.425 30.925C39.7083 30.6417 40.0667 30.5 40.5 30.5C40.9333 30.5 41.2917 30.6417 41.575 30.925C41.8583 31.2083 42 31.5667 42 32V40.5C42 40.9333 41.8583 41.2917 41.575 41.575C41.2917 41.8583 40.9333 42 40.5 42H32ZM7.5 42C7.06667 42 6.70833 41.8583 6.425 41.575C6.14167 41.2917 6 40.9333 6 40.5V32C6 31.5667 6.14167 31.2083 6.425 30.925C6.70833 30.6417 7.06667 30.5 7.5 30.5C7.93333 30.5 8.29167 30.6417 8.575 30.925C8.85833 31.2083 9 31.5667 9 32V36.85L15.35 30.5C15.6167 30.2333 15.9667 30.0917 16.4 30.075C16.8333 30.0583 17.2 30.2 17.5 30.5C17.8 30.8 17.95 31.1583 17.95 31.575C17.95 31.9917 17.8 32.35 17.5 32.65L11.15 39H16C16.4333 39 16.7917 39.1417 17.075 39.425C17.3583 39.7083 17.5 40.0667 17.5 40.5C17.5 40.9333 17.3583 41.2917 17.075 41.575C16.7917 41.8583 16.4333 42 16 42H7.5Z" fill="white"/>
    </g>
</svg>
