<svg width="24" height="25" viewBox="0 0 24 25" fill="none" xmlns="http://www.w3.org/2000/svg">
    <path d="M16.36 14.5C16.44 13.84 16.5 13.18 16.5 12.5C16.5 11.82 16.44 11.16 16.36 10.5H19.74C19.9 11.14 20 11.81 20 12.5C20 13.19 19.9 13.86 19.74 14.5M14.59 20.06C15.19 18.95 15.65 17.75 15.97 16.5H18.92C17.96 18.15 16.43 19.43 14.59 20.06ZM14.34 14.5H9.66C9.56 13.84 9.5 13.18 9.5 12.5C9.5 11.82 9.56 11.15 9.66 10.5H14.34C14.43 11.15 14.5 11.82 14.5 12.5C14.5 13.18 14.43 13.84 14.34 14.5ZM12 20.46C11.17 19.26 10.5 17.93 10.09 16.5H13.91C13.5 17.93 12.83 19.26 12 20.46ZM8 8.5H5.08C6.03 6.84 7.57 5.56 9.4 4.94C8.8 6.05 8.35 7.25 8 8.5ZM5.08 16.5H8C8.35 17.75 8.8 18.95 9.4 20.06C7.57 19.43 6.03 18.15 5.08 16.5ZM4.26 14.5C4.1 13.86 4 13.19 4 12.5C4 11.81 4.1 11.14 4.26 10.5H7.64C7.56 11.16 7.5 11.82 7.5 12.5C7.5 13.18 7.56 13.84 7.64 14.5M12 4.53C12.83 5.73 13.5 7.07 13.91 8.5H10.09C10.5 7.07 11.17 5.73 12 4.53ZM18.92 8.5H15.97C15.65 7.25 15.19 6.05 14.59 4.94C16.43 5.57 17.96 6.84 18.92 8.5ZM12 2.5C6.47 2.5 2 7 2 12.5C2 15.1522 3.05357 17.6957 4.92893 19.5711C5.85752 20.4997 6.95991 21.2362 8.17317 21.7388C9.38642 22.2413 10.6868 22.5 12 22.5C14.6522 22.5 17.1957 21.4464 19.0711 19.5711C20.9464 17.6957 22 15.1522 22 12.5C22 11.1868 21.7413 9.88642 21.2388 8.67317C20.7362 7.45991 19.9997 6.35752 19.0711 5.42893C18.1425 4.50035 17.0401 3.76375 15.8268 3.2612C14.6136 2.75866 13.3132 2.5 12 2.5Z" fill="white"/>
</svg>
